
<svg
   id="visual"
   viewBox="0 0 960 207.07596"
  
   version="1.1"
   
   sodipodi:docname="footer-wave1.svg"
   inkscape:version="1.1.2 (0a00cf5339, 2022-02-04)"
   xmlns:inkscape="http://www.inkscape.org/namespaces/inkscape"
   xmlns:sodipodi="http://sodipodi.sourceforge.net/DTD/sodipodi-0.dtd"
   xmlns="http://www.w3.org/2000/svg"
   xmlns:svg="http://www.w3.org/2000/svg">
  <defs
     id="defs69" />
 
    
  <rect
     x="0"
     y="0"
     width="960"
     height="206.07596"
     fill="#1d1b3f"
     id="rect56"
     style="stroke-width:0.617756" />
  <path
     d="m 0,22.075958 20,1.3 c 20,1.4 60,4 100,7.7 40,3.7 80,8.3 120,2.7 40,-5.7 80,-21.7 120,-23.4 40,-1.5999997 80,11 120,12.5 40,1.5 80,-8.1 120,-9.3 40,-1.2 80,6.2 120,14.5 40,8.3 80,17.7 120,22.2 40,4.5 80,4.1 100,4 l 20,-0.2 V 207.07596 h -20 c -20,0 -60,0 -100,0 -40,0 -80,0 -120,0 -40,0 -80,0 -120,0 -40,0 -80,0 -120,0 -40,0 -80,0 -120,0 -40,0 -80,0 -120,0 -40,0 -80,0 -120,0 -40,0 -80,0 -100,0 H 0 Z"
     fill="#bcbbe5"
     id="path58" />
  <path
     d="m 0,82.075958 20,-2.3 c 20,-2.4 60,-7 100,-10.7 40,-3.7 80,-6.3 120,-11 40,-4.7 80,-11.3 120,-7.2 40,4.2 80,19.2 120,27.4 40,8.1 80,9.5 120,3 40,-6.5 80,-20.9 120,-24.7 40,-3.8 80,2.8 120,5.7 40,2.8 80,1.8 100,1.3 l 20,-0.5 V 207.07596 h -20 c -20,0 -60,0 -100,0 -40,0 -80,0 -120,0 -40,0 -80,0 -120,0 -40,0 -80,0 -120,0 -40,0 -80,0 -120,0 -40,0 -80,0 -120,0 -40,0 -80,0 -120,0 -40,0 -80,0 -100,0 H 0 Z"
     fill="#b1b0e0"
     id="path60" />
  <path
     d="m 0,119.07596 20,-2.2 c 20,-2.1 60,-6.5 100,-7 40,-0.5 80,2.9 120,2.5 40,-0.3 80,-4.3 120,-7.8 40,-3.5 80,-6.500002 120,-1.7 40,4.9 80,17.5 120,19.4 40,1.8 80,-7.2 120,-14.2 40,-7 80,-12.000002 120,-14.700002 40,-2.6 80,-3 100,-3.1 l 20,-0.2 V 207.07596 h -20 c -20,0 -60,0 -100,0 -40,0 -80,0 -120,0 -40,0 -80,0 -120,0 -40,0 -80,0 -120,0 -40,0 -80,0 -120,0 -40,0 -80,0 -120,0 -40,0 -80,0 -120,0 -40,0 -80,0 -100,0 H 0 Z"
     fill="#a5a5dc"
     id="path62" />
  <path
     d="m 0,134.07596 20,-0.2 c 20,-0.1 60,-0.5 100,0.7 40,1.2 80,3.8 120,10 40,6.2 80,15.8 120,19.2 40,3.3 80,0.3 120,-0.9 40,-1.1 80,-0.5 120,-3.5 40,-3 80,-9.6 120,-13.5 40,-3.8 80,-4.8 120,-0.5 40,4.4 80,14 100,18.9 l 20,4.8 v 38 h -20 c -20,0 -60,0 -100,0 -40,0 -80,0 -120,0 -40,0 -80,0 -120,0 -40,0 -80,0 -120,0 -40,0 -80,0 -120,0 -40,0 -80,0 -120,0 -40,0 -80,0 -120,0 -40,0 -80,0 -100,0 H 0 Z"
     fill="#9a9ad7"
     id="path64" />
</svg>
