
<svg
   id="visual"
   viewBox="0 0 960 418.72723"
   
>
  <defs
     id="defs61" />
  <sodipodi:namedview
     id="namedview59"
     pagecolor="#ffffff"
     bordercolor="#666666"
     borderopacity="1.0"
     inkscape:pageshadow="2"
     inkscape:pageopacity="0.0"
     inkscape:pagecheckerboard="0"
     showgrid="false"
     fit-margin-top="0"
     fit-margin-left="0"
     fit-margin-right="0"
     fit-margin-bottom="0"
     inkscape:zoom="1.0802083"
     inkscape:cx="480"
     inkscape:cy="270.31823"
     inkscape:window-width="1920"
     inkscape:window-height="904"
     inkscape:window-x="0"
     inkscape:window-y="0"
     inkscape:window-maximized="1"
     inkscape:current-layer="visual" />
  <rect
     x="0"
     y="0"
     width="960"
     height="418.72723"
     fill="#1d1b3f"
     id="rect52"
     style="stroke-width:0.88058" />
  <path
     d="m 0,408 20,-19.7 c 20,-19.6 60,-59 100,-77.8 40,-18.8 80,-17.2 120,5.2 40,22.3 80,65.3 120,73.8 40,8.5 80,-17.5 120,-31.3 40,-13.9 80,-15.5 120,-32.7 40,-17.2 80,-49.8 120,-36.7 40,13.2 80,72.2 120,66.4 40,-5.9 80,-76.5 100,-111.9 L 960,208 V 0 H 940 C 920,0 880,0 840,0 800,0 760,0 720,0 680,0 640,0 600,0 560,0 520,0 480,0 440,0 400,0 360,0 320,0 280,0 240,0 200,0 160,0 120,0 80,0 40,0 20,0 H 0 Z"
     fill="#9a9ad7"
     id="path54" />
  <path
     d="m 0,72 20,11.5 c 20,11.5 60,34.5 100,36.3 40,1.9 80,-17.5 120,2 40,19.5 80,77.9 120,100 40,22.2 80,8.2 120,-5.5 40,-13.6 80,-27 120,-36.1 40,-9.2 80,-14.2 120,-15.7 40,-1.5 80,0.5 120,-5.5 40,-6 80,-20 100,-27 l 20,-7 V 0 H 940 C 920,0 880,0 840,0 800,0 760,0 720,0 680,0 640,0 600,0 560,0 520,0 480,0 440,0 400,0 360,0 320,0 280,0 240,0 200,0 160,0 120,0 80,0 40,0 20,0 H 0 Z"
     fill="#b1b0e0"
     id="path56" />
</svg>
