<svg id="visual" viewBox="0 0 960 540" width="960" height="540" xmlns="http://www.w3.org/2000/svg" xmlns:xlink="http://www.w3.org/1999/xlink" version="1.1"><rect x="0" y="0" width="960" height="540" fill="#1d1b3f"></rect><path d="M0 408L20 388.3C40 368.7 80 329.3 120 310.5C160 291.7 200 293.3 240 315.7C280 338 320 381 360 389.5C400 398 440 372 480 358.2C520 344.3 560 342.7 600 325.5C640 308.3 680 275.7 720 288.8C760 302 800 361 840 355.2C880 349.3 920 278.7 940 243.3L960 208L960 0L940 0C920 0 880 0 840 0C800 0 760 0 720 0C680 0 640 0 600 0C560 0 520 0 480 0C440 0 400 0 360 0C320 0 280 0 240 0C200 0 160 0 120 0C80 0 40 0 20 0L0 0Z" fill="#9a9ad7"></path><path d="M0 72L20 83.5C40 95 80 118 120 119.8C160 121.7 200 102.3 240 121.8C280 141.3 320 199.7 360 221.8C400 244 440 230 480 216.3C520 202.7 560 189.3 600 180.2C640 171 680 166 720 164.5C760 163 800 165 840 159C880 153 920 139 940 132L960 125L960 0L940 0C920 0 880 0 840 0C800 0 760 0 720 0C680 0 640 0 600 0C560 0 520 0 480 0C440 0 400 0 360 0C320 0 280 0 240 0C200 0 160 0 120 0C80 0 40 0 20 0L0 0Z" fill="#b1b0e0"></path></svg>